Coordinates
version=1
nRows=9
nColumns=42
inDegrees=yes

Units are S.I. units (second, meters, Newtons, ...)
If the header above contains a line with 'inDegrees', this indicates whether rotational values are in degrees (yes) or radians (no).

endheader
time	pelvis_tilt	pelvis_list	pelvis_rotation	pelvis_tx	pelvis_ty	pelvis_tz	hip_flexion_r	hip_adduction_r	hip_rotation_r	knee_angle_r	knee_angle_r_beta	ankle_angle_r	subtalar_angle_r	mtp_angle_r	hip_flexion_l	hip_adduction_l	hip_rotation_l	knee_angle_l	knee_angle_l_beta	ankle_angle_l	subtalar_angle_l	mtp_angle_l	lumbar_extension	lumbar_bending	lumbar_rotation	sh_tx_r	sh_ty_r	sh_tz_r	sh_plane_elev_r	sh_elev_r	sh_axial_rot_r	elbow_flex_r	pro_sup_r	sh_tx_l	sh_ty_l	sh_tz_l	sh_plane_elev_l	sh_elev_l	sh_axial_rot_l	elbow_flex_l	pro_sup_l
      1.90000000	     -6.02560226	     -1.29555806	      2.03289548	      0.35263329	      0.93381056	     -0.08479825	      4.21404532	     -6.44582557	     -3.44645787	      0.72006712	      0.01256754	      3.15364757	      6.75381671	     -7.49999986	      2.09070780	     -2.98485964	     -8.55564517	      0.27897192	      0.00486898	     12.44362610	      7.11270836	     -7.49999986	      1.97316594	     -7.67042898	      1.21485707	     -0.00370850	     -0.01176597	     -0.00788821	    -15.98951333	    115.27785519	     -9.59356357	     10.22373176	      9.49189467	      0.01167930	      0.00949366	     -0.00724433	     56.33078306	     11.37111345	     -4.53404743	      8.09421133	     37.38428694
      1.91666670	     -6.01396470	     -1.27648700	      1.91796799	      0.35264226	      0.93366611	     -0.08500264	      4.26780834	     -6.47112208	     -3.45589278	      0.76479049	      0.01334811	      3.13688542	      6.86696022	     -7.49999987	      2.05973035	     -2.96543815	     -8.61106768	      0.27467946	      0.00479406	     12.47727971	      7.10077881	     -7.49999987	      2.01182225	     -7.69512048	      0.25416146	     -0.00392842	     -0.01231532	     -0.00793113	    -13.66605870	    116.53263974	     -8.26548648	      8.55947146	      8.43622954	      0.00992216	      0.00938217	     -0.00715482	     54.89733292	     11.01472727	     -4.40666411	      8.21155279	     37.78321485
      1.93333330	     -6.02521924	     -1.25760065	      1.75929892	      0.35265209	      0.93342505	     -0.08468401	      4.37040879	     -6.48886619	     -3.36698026	      0.84278076	      0.01470930	      3.13849898	      6.94198242	     -7.49999987	      2.03684634	     -2.93624681	     -8.67650381	      0.26824788	      0.00468181	     12.54534078	      7.04822246	     -7.49999987	      2.19972138	     -7.64931379	      0.63029931	     -0.00359729	     -0.01315752	     -0.00797000	    -14.00359974	    117.94727809	     -9.08476179	      9.23205243	     10.15156605	      0.01263438	      0.00845969	     -0.00718784	     54.03654887	     10.65553332	     -4.56505038	      8.67877608	     38.72137301
      1.95000000	     -5.97823202	     -1.22884504	      1.66694511	      0.35264365	      0.93334026	     -0.08487265	      4.38305713	     -6.53136148	     -3.41744319	      0.87540531	      0.01527870	      3.06376979	      7.00463649	     -7.49999987	      1.97623119	     -2.89198632	     -8.72978505	      0.26757699	      0.00467010	     12.59326466	      7.14747428	     -7.49999987	      2.12861750	     -7.70068495	     -0.64041907	     -0.00424110	     -0.01341562	     -0.00799140	    -11.13831087	    119.09115164	     -8.53346823	      7.96792432	      8.61743074	      0.00922086	      0.00839957	     -0.00710823	     53.53213521	     10.46814155	     -4.09143346	      8.15439422	     38.66406696
      1.96666670	     -5.95497564	     -1.22783572	      1.60770430	      0.35263072	      0.93325250	     -0.08452652	      4.41707467	     -6.54768800	     -3.32025797	      0.92412223	      0.01612898	      2.91077267	      6.86976395	     -7.49999987	      1.91681476	     -2.88114279	     -8.71387857	      0.26683987	      0.00465723	     12.64476182	      6.86287802	     -7.49999987	      2.16870490	     -7.83017653	     -0.26513371	     -0.00331413	     -0.01400061	     -0.00805366	    -12.40021967	    120.07400045	     -8.92351473	      9.48911812	     11.03094676	      0.01103238	      0.00873696	     -0.00716713	     52.28947595	     10.28837666	     -4.36756949	      8.56249729	     39.49825927
      1.98333330	     -6.02761812	     -1.23693417	      1.51582400	      0.35274326	      0.93320778	     -0.08470471	      4.56204694	     -6.57272904	     -3.40022192	      1.03150415	      0.01800314	      2.91553903	      7.18737549	     -7.49999987	      1.95086249	     -2.90307296	     -9.13879179	      0.26924198	      0.00469916	     12.83193176	      7.28350951	     -7.49999987	      2.26214295	     -7.94365194	     -0.33250584	     -0.00351189	     -0.01441810	     -0.00809995	    -12.84308733	    120.99903842	    -10.00946038	     10.86487733	     10.95424737	      0.01044268	      0.00877497	     -0.00719313	     51.92287534	     10.26011407	     -3.49938511	      8.56277328	     40.18130575
      2.00000000	     -6.00232288	     -1.28945569	      1.49922715	      0.35277081	      0.93320118	     -0.08446563	      4.54840958	     -6.54940677	     -3.26117019	      1.05814210	      0.01846806	      2.67600746	      6.95705558	     -7.49999987	      1.90112214	     -2.95767488	     -8.95860382	      0.26649994	      0.00465130	     12.76251080	      6.70011685	     -7.49999987	      2.26826461	     -7.81312654	     -0.31167483	     -0.00228411	     -0.01431258	     -0.00806598	    -14.20279551	    122.36006044	    -10.17863900	     13.01566727	     13.43727619	      0.01137782	      0.00832922	     -0.00719262	     50.91450134	     10.08993168	     -3.79700002	      9.11298453	     40.93501545
      2.01666670	     -6.12286866	     -1.33143589	      1.38538068	      0.34882880	      0.93318278	     -0.07995160	      4.82792384	     -6.45326174	     -3.20838184	      1.16189423	      0.02027888	      2.74695860	      7.08468836	     -7.49999987	      2.05879359	     -3.03745101	     -9.14935557	      0.26848995	      0.00468603	     12.79449237	      6.73522037	     -7.49999987	      2.27042737	     -7.72742687	     -0.60629872	     -0.00270052	     -0.01449346	     -0.00805431	    -14.18062474	    123.71118109	     -9.19017699	     14.36678176	      9.34249214	      0.00962161	      0.00815697	     -0.00709922	     51.57090484	     10.33215209	     -3.20388494	      8.82404189	     40.17851460
      2.03333330	     -6.20394924	     -1.37455770	      1.29873193	      0.34896438	      0.93314250	     -0.07968529	      5.02604060	     -6.34037184	     -3.06764446	      1.23036321	      0.02147389	      2.68777936	      7.05588752	     -7.49999987	      2.18407998	     -3.12974654	     -9.36596868	      0.26961167	      0.00470561	     12.74439618	      6.83371044	     -7.49999987	      2.30320472	     -7.61497083	     -0.63755732	     -0.00251333	     -0.01463442	     -0.00802078	    -15.00015292	    125.08605384	    -10.43016813	     15.67030155	     10.99205414	      0.01018154	      0.00790583	     -0.00704697	     50.97924726	     10.37495425	     -2.99346032	      9.13455014	     41.33667046
